PathFileType	4	(X/Y/Z)	D:\TRACE\v60_Jaco2_6-2-23\BothDRS_Motion1_3-v60.trc
DataRate	CameraRate	NumFrames	NumMarkers	Units	OrigDataRate	OrigDataStartFrame	OrigNumFrames
100.00	100.00	      31	9	mm	100.00	1769	      7073
Frame#	Time	front left toe			Front right toe			aft left toe			aft right toe			Arm			FL body			FR body			AL Body			AR Body			
		X1	Y1	Z1	X2	Y2	Z2	X3	Y3	Z3	X4	Y4	Z4	X5	Y5	Z5	X6	Y6	Z6	X7	Y7	Z7	X8	Y8	Z8	X9	Y9	Z9	

1769	17.680	-184.26170	48.25470	-326.04910	156.66029	9.71474	-434.06168	-9.60609	15.18836	278.19922	325.36703	53.92694	182.84482	-78.02939	1175.52832	-707.29022	-137.35451	579.34534	-482.68683	14.74135	578.13458	-533.35553	147.15729	561.22473	419.22968	294.13773	552.64685	372.63437	
1770	17.690	-185.39618	58.94324	-326.88260	157.34740	9.61367	-433.86716	-8.97180	15.19697	278.35083	327.21173	65.46997	181.25244	-78.24345	1175.80981	-706.75690	-136.95889	578.70313	-483.07996	14.95766	577.42010	-533.82446	146.77260	561.21039	419.03815	293.91400	552.73096	372.63937	
1771	17.700	-186.30859	69.66337	-326.95645	158.41887	9.36139	-433.79364	-8.37995	14.99210	278.05545	330.39035	77.38063	180.32803	-77.36633	1174.66382	-707.31342	-136.53102	578.21167	-483.38266	15.43263	576.97333	-533.98737	146.38109	560.79932	418.97159	293.79126	552.49640	372.65021	
1772	17.710	-187.66278	80.86004	-327.48953	158.93764	9.10977	-434.08191	-8.13254	15.05141	277.99863	332.57980	88.72900	179.03609	-76.82219	1172.92334	-708.55487	-136.14548	577.50543	-483.69788	16.26081	576.26508	-534.39075	146.02483	560.15582	418.88025	293.27359	551.86212	372.73398	
1773	17.720	-189.31583	92.59219	-327.73032	159.46013	8.18371	-434.51187	-7.52754	15.08651	278.00586	333.47061	99.60696	177.58955	-75.65430	1170.31885	-710.68469	-135.98796	576.67517	-483.73456	16.02962	575.81055	-534.17493	146.02312	559.11774	418.36292	293.11734	551.69104	372.80545	
1774	17.730	-190.59706	104.48372	-328.09180	160.07784	8.18394	-434.24973	-6.74918	15.03802	277.94308	334.06647	110.27746	176.50084	-75.20231	1167.95959	-712.11060	-135.65561	576.11310	-483.96384	16.45164	575.10413	-534.20300	145.96815	559.06860	418.36969	293.44293	551.87793	372.91077	
1775	17.740	-191.53127	114.92131	-328.19803	161.08644	7.85111	-434.11606	-6.16793	15.09346	277.84595	332.86823	120.06933	175.80704	-74.94926	1165.85522	-713.58746	-135.38928	575.34766	-484.19824	18.18789	574.32275	-532.85071	145.74448	560.20032	418.99612	293.37411	552.30737	373.00479	
1776	17.750	-192.28732	123.99330	-328.28308	161.71651	7.63980	-434.20139	-5.34217	15.51279	277.68176	332.27814	129.87756	175.50870	-75.14954	1164.32568	-714.89636	-134.72368	574.17096	-484.35159	17.90345	573.51013	-533.28278	145.63190	560.81714	418.98438	293.31357	552.79340	373.13004	
1777	17.760	-193.14963	129.36295	-327.76056	162.13748	7.24675	-434.41873	-4.86480	15.76528	277.72559	331.67441	137.96346	175.43890	-75.60950	1162.91699	-715.62750	-134.33742	573.13477	-484.70395	19.13607	572.58484	-534.01788	145.56923	560.61493	418.23404	293.53854	552.90729	372.77823	
1778	17.770	-193.46179	133.60233	-326.51328	163.20300	6.98803	-434.45142	-4.19855	15.82616	277.59415	331.79852	144.67346	174.97086	-75.67165	1162.00598	-716.19025	-133.86143	571.84900	-484.85547	19.83261	571.64282	-533.98315	145.31053	561.84534	418.88144	293.15726	553.74481	373.41864	
1779	17.780	-193.82076	136.56454	-326.02994	164.08990	6.83855	-434.37759	-3.35145	15.90495	277.39609	333.00562	148.64275	174.14388	-75.67879	1161.41675	-716.80481	-133.18515	570.90552	-485.02676	20.41313	570.50061	-534.11115	145.11374	562.48169	418.94629	293.08548	554.24139	373.02078	
1780	17.790	-194.60788	137.49416	-325.30362	164.61725	6.40959	-434.33667	-2.73851	16.05971	277.37793	333.52551	149.56870	173.86586	-75.52850	1160.83203	-717.35431	-132.38748	569.93353	-485.34714	20.59974	569.57721	-534.28131	145.05174	562.94666	418.75284	293.17731	554.99835	373.74902	
1781	17.800	-195.16331	135.80516	-324.72678	165.42836	6.12510	-434.29218	-1.91583	16.06583	277.30521	335.00320	148.71005	174.20769	-75.15546	1160.22363	-718.35773	-131.75977	568.88727	-485.60294	22.88316	569.70599	-534.72748	144.08904	563.48608	419.09995	292.37314	555.47296	373.78098	
1782	17.810	-195.29189	132.90303	-324.59106	166.17076	5.85896	-434.34445	-1.25653	16.22941	277.02441	334.63263	145.68756	174.34216	-74.22832	1158.97913	-719.18298	-131.65506	568.31824	-485.93491	22.27599	567.99060	-533.96417	143.28635	563.66699	418.97882	291.92725	555.86102	373.80566	
1783	17.820	-195.22684	128.45026	-325.02924	167.03908	5.57274	-434.40604	-0.46505	16.09963	276.81921	334.76025	141.21477	174.66025	-73.75304	1157.92017	-720.49817	-130.96693	567.80927	-486.40149	22.81040	567.54541	-534.22351	142.69005	563.79022	419.01956	291.88718	556.03632	373.82382	
1784	17.830	-195.47919	124.12371	-325.88782	167.70045	5.36189	-434.40479	0.17500	16.21230	276.76208	334.87122	136.20792	174.76526	-73.41843	1156.70605	-721.15271	-130.19832	567.29468	-486.81940	23.30772	567.18231	-534.43762	143.31075	563.70428	418.53223	291.59061	556.23108	373.80682	
1785	17.840	-196.30403	119.55042	-327.06552	168.53749	5.01373	-434.36765	1.07334	16.20839	276.61560	333.07785	129.97067	174.63710	-73.16797	1155.91931	-722.16290	-129.80493	567.06195	-487.18619	24.84792	567.23639	-534.82867	142.86479	563.99316	418.57614	291.23227	556.56641	373.84338	
1786	17.850	-197.17235	114.42979	-328.31473	169.10783	4.80279	-434.43146	1.81040	16.47621	276.32550	332.57266	123.48597	174.46588	-72.97823	1155.28320	-723.00525	-128.94397	566.68243	-487.92651	25.87114	566.76550	-535.22748	142.78200	563.86285	418.24796	290.62979	557.06897	373.93326	
1787	17.860	-197.98828	108.54362	-329.42395	169.87152	4.60234	-434.70209	2.61916	16.73832	276.33096	329.88873	115.97243	173.92349	-72.63774	1155.06677	-723.81909	-128.37630	566.39215	-488.49286	26.80694	566.13525	-535.34485	141.64824	564.84155	418.11902	289.81793	557.45013	373.97443	
1788	17.870	-198.86375	102.19398	-330.91281	170.96490	4.44204	-434.56360	3.45502	16.73481	276.32877	328.14328	109.17979	173.56958	-71.97925	1154.81848	-724.65497	-127.64820	566.05377	-489.20020	26.75341	565.57813	-535.67371	140.90536	565.27094	417.88150	288.25208	557.77661	373.88748	
1789	17.880	-199.23767	94.75179	-332.34412	171.54228	4.17617	-434.66422	4.41178	16.50504	276.20099	326.43060	101.44550	173.85277	-70.81895	1154.66650	-725.34589	-127.22164	565.80743	-490.22726	27.22990	565.65448	-537.11853	139.86993	565.44861	417.61652	288.09613	558.16736	373.94766	
1790	17.890	-199.16638	86.86536	-334.04401	172.11348	3.85145	-434.69568	5.14864	16.51229	275.93951	323.91837	93.13123	174.29225	-69.25446	1154.28394	-726.51770	-126.04283	565.36938	-491.05090	28.01457	565.37445	-537.55743	138.76567	565.63446	417.41315	286.23401	558.16064	373.20053	
1791	17.900	-198.61044	78.82722	-336.37875	173.15431	3.85674	-434.57065	5.82982	16.59029	275.87006	321.95996	85.04578	174.58005	-67.38936	1154.15479	-727.66748	-125.01492	565.16882	-491.95422	29.27948	564.70209	-537.55194	137.90613	565.88806	417.07913	285.85306	558.14941	373.42712	
1792	17.910	-198.47794	71.34010	-339.38461	174.06831	3.91070	-434.36896	6.73941	16.75974	275.72092	319.32013	76.22179	174.39508	-65.61968	1154.06836	-728.75885	-124.13554	565.11005	-493.03128	30.66154	564.72229	-538.01868	136.12161	566.10797	416.59735	283.85138	558.64355	374.13156	
1793	17.920	-197.91800	63.35053	-342.32169	174.63223	3.50039	-434.64441	7.45406	16.66941	275.49515	317.05771	68.38275	174.39288	-63.49629	1153.80029	-729.81165	-122.75003	564.75061	-494.29852	31.91269	564.25244	-538.11963	134.47147	566.19098	415.99979	282.71173	558.75299	373.94803	
1794	17.930	-197.37355	55.56443	-345.60907	175.45363	3.06839	-434.69034	7.98521	16.63615	275.26434	313.83118	60.25328	173.89284	-61.27844	1153.54700	-731.29102	-121.73815	564.71167	-495.65836	33.40464	564.10510	-539.68213	131.22957	566.85669	415.87936	280.68472	558.67535	373.93100	
1795	17.940	-196.67441	48.30799	-348.98721	176.70033	2.94858	-434.48962	8.65197	16.53174	275.09604	311.15826	52.38346	174.12642	-59.22367	1153.38794	-732.69543	-120.58842	564.89148	-497.41919	34.75063	563.78217	-540.72296	129.08142	566.92773	415.41861	278.85999	558.79492	373.99048	
1796	17.950	-195.46007	40.59947	-351.87524	177.33138	2.62764	-434.42563	9.56387	16.36347	274.92963	308.57813	45.10620	174.31880	-56.96635	1153.49963	-734.40930	-118.70499	564.65027	-499.14603	37.56997	564.28802	-542.57367	126.72409	567.18652	414.66046	276.57327	558.92999	374.00970	
1797	17.960	-194.60455	33.83794	-354.68539	178.23734	2.55280	-434.14182	10.26381	16.25548	274.54153	305.66104	38.36866	174.70859	-54.14383	1153.23706	-736.13000	-117.09154	564.48230	-500.81592	39.19974	563.54401	-542.87982	124.39014	567.56854	413.63953	274.12640	558.89874	373.68140	
1798	17.970	-193.94722	27.29713	-357.51987	179.59456	2.09560	-434.14700	10.68845	16.29991	274.36429	302.86761	32.10335	175.28447	-50.71732	1153.11499	-738.13281	-116.02753	564.53546	-503.04248	41.08647	563.30060	-544.28546	121.80731	567.25006	412.94913	271.35184	558.89532	373.57571	
1799	17.980	-193.25073	20.70168	-360.70834	180.34160	1.82733	-434.11047	11.53481	16.18767	274.19684	300.18811	25.90244	175.12933	-47.44509	1152.63269	-740.21918	-113.86008	563.96838	-504.92310	41.97222	562.83136	-545.18262	118.75557	567.59979	411.89502	268.81348	559.17767	373.19983	
